<svg xmlns="http://www.w3.org/2000/svg" width="27" height="26" viewBox="0 0 27 26"><defs><clipPath id="j1hva"><path fill="#fff" d="M17.578 0C22.782 0 27 4.323 27 9.656s-4.218 9.656-9.422 9.656a9.26 9.26 0 0 1-6.3-2.476l-9.515 9.169-1.76-1.919 9.614-9.263a9.786 9.786 0 0 1-1.46-5.167C8.156 4.323 12.373 0 17.577 0z"/></clipPath></defs><g><g><path fill="#fff" d="M17.578 0C22.782 0 27 4.323 27 9.656s-4.218 9.656-9.422 9.656a9.26 9.26 0 0 1-6.3-2.476l-9.515 9.169-1.76-1.919 9.614-9.263a9.786 9.786 0 0 1-1.46-5.167C8.156 4.323 12.373 0 17.577 0z"/><path fill="none" stroke="#b7b7b7" stroke-miterlimit="20" stroke-width="6" d="M17.578 0C22.782 0 27 4.323 27 9.656s-4.218 9.656-9.422 9.656a9.26 9.26 0 0 1-6.3-2.476l-9.515 9.169-1.76-1.919 9.614-9.263a9.786 9.786 0 0 1-1.46-5.167C8.156 4.323 12.373 0 17.577 0z" clip-path="url(&quot;#j1hva&quot;)"/></g></g></svg>