<svg width="159" height="19" viewBox="0 0 159 19" fill="none" xmlns="http://www.w3.org/2000/svg">
<path d="M9.44687 3.67691L8.02864 4.63202C7.77224 4.12589 7.45974 3.71773 7.09116 3.40753C6.61041 3.03202 6.00946 2.84426 5.28832 2.84426C4.48706 2.84426 3.83804 3.08099 3.34126 3.55446C2.84448 4.01161 2.59609 4.61569 2.59609 5.36671C2.59609 5.92181 2.7964 6.39528 3.19703 6.78712C3.51754 7.11365 4.07842 7.4565 4.87968 7.81569L6.4181 8.5014C7.55589 9.00753 8.38119 9.52181 8.894 10.0443C9.66321 10.8279 10.0478 11.8157 10.0478 13.0075C10.0478 14.4932 9.56706 15.7014 8.60555 16.632C7.64403 17.5626 6.43413 18.0279 4.97583 18.0279C3.53356 18.0279 2.37173 17.5871 1.49035 16.7055C0.769211 15.9871 0.272429 15.0239 0 13.8157L1.73072 13.3259C1.8429 14.1422 2.16341 14.8361 2.69224 15.4075C3.28517 16.0116 4.05438 16.3136 4.99987 16.3136C6.02549 16.3136 6.81873 16.0034 7.37962 15.383C7.9405 14.7463 8.22094 13.979 8.22094 13.081C8.22094 12.2973 7.95653 11.6606 7.42769 11.1708C7.12321 10.8769 6.4822 10.5014 5.50467 10.0443L4.0624 9.35855C3.08486 8.9014 2.37173 8.45242 1.92303 8.01161C1.18587 7.29324 0.817287 6.40344 0.817287 5.34222C0.817287 4.08508 1.23394 3.07283 2.06725 2.30548C2.91659 1.52181 3.99829 1.12997 5.31236 1.12997C6.30593 1.12997 7.16328 1.37487 7.88441 1.86467C8.54145 2.30548 9.06227 2.90957 9.44687 3.67691Z" fill="#252525"/>
<path d="M30.6381 17.7341L28.7632 13.13H21.9364L20.0134 17.7341H18.0423L25.4219 0.615688L32.6092 17.7341H30.6381ZM22.6335 11.4157H28.0661L25.3738 4.87691L22.6335 11.4157Z" fill="#252525"/>
<path d="M42.7549 17.7341H40.928L43.5962 0.493239L49.7499 14.281L56.0238 0.46875L58.5237 17.7341H56.6968L55.1824 6.37079L49.7258 18.4198L44.3414 6.37079L42.7549 17.7341Z" fill="#252525"/>
<path d="M68.8427 1.39936H70.6215V17.7341H68.8427V1.39936Z" fill="#252525"/>
<path d="M84.758 17.7341V10.7055L79.4937 1.39936H81.561L85.6474 8.69732L89.7819 1.39936H91.8492L86.5368 10.7055V17.7341H84.758Z" fill="#252525"/>
<path d="M108.556 3.67691L107.138 4.63202C106.881 4.12589 106.569 3.71773 106.2 3.40753C105.72 3.03202 105.119 2.84426 104.397 2.84426C103.596 2.84426 102.947 3.08099 102.45 3.55446C101.954 4.01161 101.705 4.61569 101.705 5.36671C101.705 5.92181 101.906 6.39528 102.306 6.78712C102.627 7.11365 103.188 7.4565 103.989 7.81569L105.527 8.5014C106.665 9.00753 107.49 9.52181 108.003 10.0443C108.772 10.8279 109.157 11.8157 109.157 13.0075C109.157 14.4932 108.676 15.7014 107.715 16.632C106.753 17.5626 105.543 18.0279 104.085 18.0279C102.643 18.0279 101.481 17.5871 100.599 16.7055C99.8783 15.9871 99.3816 15.0239 99.1091 13.8157L100.84 13.3259C100.952 14.1422 101.273 14.8361 101.801 15.4075C102.394 16.0116 103.164 16.3136 104.109 16.3136C105.135 16.3136 105.928 16.0034 106.489 15.383C107.05 14.7463 107.33 13.979 107.33 13.081C107.33 12.2973 107.066 11.6606 106.537 11.1708C106.232 10.8769 105.591 10.5014 104.614 10.0443L103.172 9.35855C102.194 8.9014 101.481 8.45242 101.032 8.01161C100.295 7.29324 99.9264 6.40344 99.9264 5.34222C99.9264 4.08508 100.343 3.07283 101.176 2.30548C102.026 1.52181 103.107 1.12997 104.422 1.12997C105.415 1.12997 106.272 1.37487 106.994 1.86467C107.651 2.30548 108.171 2.90957 108.556 3.67691Z" fill="#252525"/>
<path d="M132.415 15.6034C130.813 17.2198 128.842 18.0279 126.502 18.0279C124.162 18.0279 122.183 17.2198 120.565 15.6034C118.962 13.9871 118.161 11.979 118.161 9.57895C118.161 7.16263 118.97 5.15446 120.589 3.55446C122.207 1.93814 124.178 1.12997 126.502 1.12997C128.826 1.12997 130.797 1.93814 132.415 3.55446C134.034 5.15446 134.843 7.16263 134.843 9.57895C134.843 11.979 134.034 13.9871 132.415 15.6034ZM131.117 4.80344C129.851 3.49732 128.313 2.84426 126.502 2.84426C124.691 2.84426 123.153 3.49732 121.887 4.80344C120.621 6.10957 119.988 7.7014 119.988 9.57895C119.988 11.4565 120.621 13.0483 121.887 14.3545C123.153 15.6606 124.691 16.3136 126.502 16.3136C128.313 16.3136 129.851 15.6606 131.117 14.3545C132.383 13.0483 133.016 11.4565 133.016 9.57895C133.016 7.7014 132.383 6.10957 131.117 4.80344Z" fill="#252525"/>
<path d="M146.5 17.7341H144.722V0.713648L157.221 14.0606V1.39936H159V18.4688L146.5 5.12181V17.7341Z" fill="#252525"/>
</svg>
