<svg width="15" height="21" viewBox="0 0 15 21" fill="none" xmlns="http://www.w3.org/2000/svg">
<path fill-rule="evenodd" clip-rule="evenodd" d="M7.5 20.6665C7.5 20.6665 15 13.559 15 8.1665C15 6.17738 14.2098 4.26973 12.8033 2.8632C11.3968 1.45668 9.48912 0.666504 7.5 0.666504C5.51088 0.666504 3.60322 1.45668 2.1967 2.8632C0.790176 4.26973 2.96403e-08 6.17738 0 8.1665C0 13.559 7.5 20.6665 7.5 20.6665ZM7.5 11.9165C8.49456 11.9165 9.44839 11.5214 10.1517 10.8182C10.8549 10.1149 11.25 9.16107 11.25 8.1665C11.25 7.17194 10.8549 6.21811 10.1517 5.51485C9.44839 4.81159 8.49456 4.4165 7.5 4.4165C6.50544 4.4165 5.55161 4.81159 4.84835 5.51485C4.14509 6.21811 3.75 7.17194 3.75 8.1665C3.75 9.16107 4.14509 10.1149 4.84835 10.8182C5.55161 11.5214 6.50544 11.9165 7.5 11.9165Z" fill="#008BF5"/>
</svg>
