<svg width="20" height="16" viewBox="0 0 20 16" fill="none" xmlns="http://www.w3.org/2000/svg">
<path d="M17.148 3.73741C16.9698 3.45932 16.7185 3.22913 16.4183 3.06906C16.118 2.90898 15.779 2.82442 15.434 2.82353H13V0.941176C13 0.691561 12.8946 0.452169 12.7071 0.275664C12.5196 0.0991596 12.2652 0 12 0H2C0.897 0 0 0.844235 0 1.88235V11.2941C0 11.9962 0.416 12.6033 1.023 12.9261C1.146 14.6381 2.65 16 4.5 16C6.259 16 7.704 14.768 7.949 13.1765H11.051C11.296 14.768 12.741 16 14.5 16C16.259 16 17.704 14.768 17.949 13.1765H18C19.103 13.1765 20 12.3322 20 11.2941V8.47059C20.0002 8.29977 19.9507 8.13215 19.857 7.98588L17.148 3.73741ZM13 4.70588H15.434L17.234 7.52941H13V4.70588ZM4.5 14.1176C3.673 14.1176 3 13.4842 3 12.7059C3 11.9275 3.673 11.2941 4.5 11.2941C5.327 11.2941 6 11.9275 6 12.7059C6 13.4842 5.327 14.1176 4.5 14.1176ZM14.5 14.1176C13.673 14.1176 13 13.4842 13 12.7059C13 11.9275 13.673 11.2941 14.5 11.2941C15.327 11.2941 16 11.9275 16 12.7059C16 13.4842 15.327 14.1176 14.5 14.1176Z" fill="#008BF5"/>
</svg>
